<?xml version="1.0" standalone="no"?>
<svg xmlns:xlink="http://www.w3.org/1999/xlink" id="wave" style="transform:rotate(180deg); transition: 0.3s" viewBox="0 0 1440 490" version="1.1" xmlns="http://www.w3.org/2000/svg"><defs><linearGradient id="sw-gradient-0" x1="0" x2="0" y1="1" y2="0"><stop stop-color="rgba(11, 21, 31, 1)" offset="0%"/><stop stop-color="rgba(252, 227, 160, 1)" offset="100%"/></linearGradient></defs><path style="transform:translate(0, 0px); opacity:1" fill="url(#sw-gradient-0)" d="M0,294L30,261.3C60,229,120,163,180,187.8C240,212,300,327,360,351.2C420,376,480,310,540,294C600,278,660,310,720,318.5C780,327,840,310,900,302.2C960,294,1020,294,1080,318.5C1140,343,1200,392,1260,408.3C1320,425,1380,408,1440,392C1500,376,1560,359,1620,367.5C1680,376,1740,408,1800,424.7C1860,441,1920,441,1980,392C2040,343,2100,245,2160,179.7C2220,114,2280,82,2340,73.5C2400,65,2460,82,2520,81.7C2580,82,2640,65,2700,65.3C2760,65,2820,82,2880,89.8C2940,98,3000,98,3060,106.2C3120,114,3180,131,3240,155.2C3300,180,3360,212,3420,261.3C3480,310,3540,376,3600,343C3660,310,3720,180,3780,171.5C3840,163,3900,278,3960,334.8C4020,392,4080,392,4140,375.7C4200,359,4260,327,4290,310.3L4320,294L4320,490L4290,490C4260,490,4200,490,4140,490C4080,490,4020,490,3960,490C3900,490,3840,490,3780,490C3720,490,3660,490,3600,490C3540,490,3480,490,3420,490C3360,490,3300,490,3240,490C3180,490,3120,490,3060,490C3000,490,2940,490,2880,490C2820,490,2760,490,2700,490C2640,490,2580,490,2520,490C2460,490,2400,490,2340,490C2280,490,2220,490,2160,490C2100,490,2040,490,1980,490C1920,490,1860,490,1800,490C1740,490,1680,490,1620,490C1560,490,1500,490,1440,490C1380,490,1320,490,1260,490C1200,490,1140,490,1080,490C1020,490,960,490,900,490C840,490,780,490,720,490C660,490,600,490,540,490C480,490,420,490,360,490C300,490,240,490,180,490C120,490,60,490,30,490L0,490Z"/></svg>