<?xml version="1.0" standalone="no"?>
<svg xmlns:xlink="http://www.w3.org/1999/xlink" id="wave" style="transform:rotate(0deg); transition: 0.3s" viewBox="0 0 1440 490" version="1.1" xmlns="http://www.w3.org/2000/svg"><defs><linearGradient id="sw-gradient-0" x1="0" x2="0" y1="1" y2="0"><stop stop-color="rgba(237, 186, 120, 1)" offset="0%"/><stop stop-color="rgba(252, 227, 160, 1)" offset="100%"/></linearGradient></defs><path style="transform:translate(0, 0px); opacity:1" fill="url(#sw-gradient-0)" d="M0,147L26.7,196C53.3,245,107,343,160,367.5C213.3,392,267,343,320,310.3C373.3,278,427,261,480,277.7C533.3,294,587,343,640,367.5C693.3,392,747,392,800,359.3C853.3,327,907,261,960,212.3C1013.3,163,1067,131,1120,171.5C1173.3,212,1227,327,1280,367.5C1333.3,408,1387,376,1440,310.3C1493.3,245,1547,147,1600,89.8C1653.3,33,1707,16,1760,65.3C1813.3,114,1867,229,1920,294C1973.3,359,2027,376,2080,367.5C2133.3,359,2187,327,2240,294C2293.3,261,2347,229,2400,228.7C2453.3,229,2507,261,2560,302.2C2613.3,343,2667,392,2720,383.8C2773.3,376,2827,310,2880,294C2933.3,278,2987,310,3040,326.7C3093.3,343,3147,343,3200,351.2C3253.3,359,3307,376,3360,383.8C3413.3,392,3467,392,3520,367.5C3573.3,343,3627,294,3680,228.7C3733.3,163,3787,82,3813,40.8L3840,0L3840,490L3813.3,490C3786.7,490,3733,490,3680,490C3626.7,490,3573,490,3520,490C3466.7,490,3413,490,3360,490C3306.7,490,3253,490,3200,490C3146.7,490,3093,490,3040,490C2986.7,490,2933,490,2880,490C2826.7,490,2773,490,2720,490C2666.7,490,2613,490,2560,490C2506.7,490,2453,490,2400,490C2346.7,490,2293,490,2240,490C2186.7,490,2133,490,2080,490C2026.7,490,1973,490,1920,490C1866.7,490,1813,490,1760,490C1706.7,490,1653,490,1600,490C1546.7,490,1493,490,1440,490C1386.7,490,1333,490,1280,490C1226.7,490,1173,490,1120,490C1066.7,490,1013,490,960,490C906.7,490,853,490,800,490C746.7,490,693,490,640,490C586.7,490,533,490,480,490C426.7,490,373,490,320,490C266.7,490,213,490,160,490C106.7,490,53,490,27,490L0,490Z"/></svg>