<?xml version="1.0" standalone="no"?>
<svg xmlns:xlink="http://www.w3.org/1999/xlink" id="wave" style="transform:rotate(0deg); transition: 0.3s" viewBox="0 0 1440 490" version="1.1" xmlns="http://www.w3.org/2000/svg"><defs><linearGradient id="sw-gradient-0" x1="0" x2="0" y1="1" y2="0"><stop stop-color="rgba(11, 21, 31, 1)" offset="0%"/><stop stop-color="rgba(252, 227, 160, 1)" offset="100%"/></linearGradient></defs><path style="transform:translate(0, 0px); opacity:1" fill="url(#sw-gradient-0)" d="M0,196L30,220.5C60,245,120,294,180,318.5C240,343,300,343,360,351.2C420,359,480,376,540,367.5C600,359,660,327,720,277.7C780,229,840,163,900,187.8C960,212,1020,327,1080,326.7C1140,327,1200,212,1260,212.3C1320,212,1380,327,1440,310.3C1500,294,1560,147,1620,138.8C1680,131,1740,261,1800,277.7C1860,294,1920,196,1980,171.5C2040,147,2100,196,2160,187.8C2220,180,2280,114,2340,138.8C2400,163,2460,278,2520,326.7C2580,376,2640,359,2700,318.5C2760,278,2820,212,2880,187.8C2940,163,3000,180,3060,212.3C3120,245,3180,294,3240,310.3C3300,327,3360,310,3420,269.5C3480,229,3540,163,3600,130.7C3660,98,3720,98,3780,106.2C3840,114,3900,131,3960,187.8C4020,245,4080,343,4140,318.5C4200,294,4260,147,4290,73.5L4320,0L4320,490L4290,490C4260,490,4200,490,4140,490C4080,490,4020,490,3960,490C3900,490,3840,490,3780,490C3720,490,3660,490,3600,490C3540,490,3480,490,3420,490C3360,490,3300,490,3240,490C3180,490,3120,490,3060,490C3000,490,2940,490,2880,490C2820,490,2760,490,2700,490C2640,490,2580,490,2520,490C2460,490,2400,490,2340,490C2280,490,2220,490,2160,490C2100,490,2040,490,1980,490C1920,490,1860,490,1800,490C1740,490,1680,490,1620,490C1560,490,1500,490,1440,490C1380,490,1320,490,1260,490C1200,490,1140,490,1080,490C1020,490,960,490,900,490C840,490,780,490,720,490C660,490,600,490,540,490C480,490,420,490,360,490C300,490,240,490,180,490C120,490,60,490,30,490L0,490Z"/></svg>