<?xml version="1.0" standalone="no"?>
<svg xmlns:xlink="http://www.w3.org/1999/xlink" id="wave" style="transform:rotate(0deg); transition: 0.3s" viewBox="0 0 1440 490" version="1.1" xmlns="http://www.w3.org/2000/svg"><defs><linearGradient id="sw-gradient-0" x1="0" x2="0" y1="1" y2="0"><stop stop-color="rgba(25, 36, 48, 1)" offset="0%"/><stop stop-color="rgba(11, 21, 31, 1)" offset="100%"/></linearGradient></defs><path style="transform:translate(0, 0px); opacity:1" fill="url(#sw-gradient-0)" d="M0,49L26.7,81.7C53.3,114,107,180,160,228.7C213.3,278,267,310,320,302.2C373.3,294,427,245,480,236.8C533.3,229,587,261,640,277.7C693.3,294,747,294,800,294C853.3,294,907,294,960,294C1013.3,294,1067,294,1120,253.2C1173.3,212,1227,131,1280,106.2C1333.3,82,1387,114,1440,147C1493.3,180,1547,212,1600,253.2C1653.3,294,1707,343,1760,302.2C1813.3,261,1867,131,1920,89.8C1973.3,49,2027,98,2080,163.3C2133.3,229,2187,310,2240,310.3C2293.3,310,2347,229,2400,171.5C2453.3,114,2507,82,2560,98C2613.3,114,2667,180,2720,220.5C2773.3,261,2827,278,2880,261.3C2933.3,245,2987,196,3040,147C3093.3,98,3147,49,3200,65.3C3253.3,82,3307,163,3360,179.7C3413.3,196,3467,147,3520,106.2C3573.3,65,3627,33,3680,32.7C3733.3,33,3787,65,3813,81.7L3840,98L3840,490L3813.3,490C3786.7,490,3733,490,3680,490C3626.7,490,3573,490,3520,490C3466.7,490,3413,490,3360,490C3306.7,490,3253,490,3200,490C3146.7,490,3093,490,3040,490C2986.7,490,2933,490,2880,490C2826.7,490,2773,490,2720,490C2666.7,490,2613,490,2560,490C2506.7,490,2453,490,2400,490C2346.7,490,2293,490,2240,490C2186.7,490,2133,490,2080,490C2026.7,490,1973,490,1920,490C1866.7,490,1813,490,1760,490C1706.7,490,1653,490,1600,490C1546.7,490,1493,490,1440,490C1386.7,490,1333,490,1280,490C1226.7,490,1173,490,1120,490C1066.7,490,1013,490,960,490C906.7,490,853,490,800,490C746.7,490,693,490,640,490C586.7,490,533,490,480,490C426.7,490,373,490,320,490C266.7,490,213,490,160,490C106.7,490,53,490,27,490L0,490Z"/></svg>